<?xml version="1.0" encoding="UTF-8" standalone="no"?>
<!-- Generator: Adobe Illustrator 16.0.0, SVG Export Plug-In . SVG Version: 6.00 Build 0)  -->

<svg
   xmlns:dc="http://purl.org/dc/elements/1.1/"
   xmlns:cc="http://creativecommons.org/ns#"
   xmlns:rdf="http://www.w3.org/1999/02/22-rdf-syntax-ns#"
   xmlns:svg="http://www.w3.org/2000/svg"
   xmlns="http://www.w3.org/2000/svg"
   xmlns:sodipodi="http://sodipodi.sourceforge.net/DTD/sodipodi-0.dtd"
   xmlns:inkscape="http://www.inkscape.org/namespaces/inkscape"
   version="1.1"
   id="Capa_1"
   x="0px"
   y="0px"
   width="92.676567"
   height="85.261627"
   viewBox="0 0 92.676568 85.261627"
   xml:space="preserve"
   inkscape:version="0.91 r13725"
   sodipodi:docname="domestic2.svg"><metadata
     id="metadata43"><rdf:RDF><cc:Work
         rdf:about=""><dc:format>image/svg+xml</dc:format><dc:type
           rdf:resource="http://purl.org/dc/dcmitype/StillImage" /><dc:title></dc:title></cc:Work></rdf:RDF></metadata><defs
     id="defs41" /><sodipodi:namedview
     pagecolor="#ffffff"
     bordercolor="#666666"
     borderopacity="1"
     objecttolerance="10"
     gridtolerance="10"
     guidetolerance="10"
     inkscape:pageopacity="0"
     inkscape:pageshadow="2"
     inkscape:window-width="1323"
     inkscape:window-height="761"
     id="namedview39"
     showgrid="false"
     fit-margin-top="0"
     fit-margin-left="0"
     fit-margin-right="0"
     fit-margin-bottom="0"
     inkscape:zoom="1.3615018"
     inkscape:cx="125.25061"
     inkscape:cy="12.570191"
     inkscape:window-x="0"
     inkscape:window-y="0"
     inkscape:window-maximized="0"
     inkscape:current-layer="Capa_1" /><g
     id="g3"
     transform="translate(-8.6299431,3.0002037)"
     style="fill:#ffffff;fill-opacity:1;stroke:#000000;stroke-opacity:1"><g
       id="g5"
       transform="matrix(0.52660579,0,0,0.46610097,1.9991649,-1.0278303e-4)"
       style="fill:#ffffff;fill-opacity:1;stroke:#000000;stroke-opacity:1"><path
         d="m 24.061304,107.36942 c -2.382539,9.81067 -0.699998,17.23574 4.204061,23.54183 4.904059,6.30609 -0.561017,9.94913 -4.623551,11.91167 -4.062534,1.96254 -5.606093,3.22356 -5.886093,6.02559 -0.279999,2.80202 3.504064,13.73421 5.325586,15.55573 1.821522,1.82153 5.886601,5.74508 8.547103,9.81016 2.663047,4.06253 6.165074,1.40203 6.165074,1.40203 2.52152,1.96254 5.045076,0 5.045076,0 4.48457,2.10203 7.147108,-0.84101 7.147108,-0.84101 2.241012,-2.66254 -2.521521,-5.46457 -2.521521,-5.46457 -2.943046,-5.18457 -5.184567,-0.98051 -6.025583,-2.10203 -0.841015,-1.12153 -1.541014,-1.26102 -6.025583,-6.44507 -4.484569,-5.18406 7.147107,-3.50407 11.210151,-4.48457 4.063043,-0.98051 11.771167,-6.16457 11.771167,-6.16457 0,6.16457 2.10203,5.18457 5.184567,8.40812 3.082537,3.22356 4.484569,5.32559 8.547103,7.00609 4.062534,1.68254 6.025583,1.40204 9.669137,3.78457 3.643553,2.38254 11.21015,1.96254 11.21015,1.96254 3.362536,1.12204 6.5866,0 6.5866,0 8.127614,0 4.764564,-2.80202 1.821524,-6.5866 -2.943048,-3.78457 -8.827614,-0.56101 -11.490152,-2.38253 -2.662538,-1.82153 -9.249137,-4.62355 -12.612182,-6.5866 -3.362536,-1.96254 0,-5.46457 0,-8.68813 0,-3.22355 2.52152,-5.74507 2.52152,-5.74507 l 13.031672,0 c 0,0 10.088112,-0.7 12.751162,4.76457 2.66305,5.46457 6.72559,6.5866 6.86661,9.52964 0.14152,2.94305 -2.38254,3.22356 -2.38254,3.22356 -5.6061,-1.54101 -5.74508,7.42761 -5.74508,7.42761 6.8666,9.10863 20.17929,-3.78457 20.17929,-3.78457 15.4137,-1.40203 14.29218,-24.10233 14.29218,-24.10233 3.08254,-2.24101 7.98812,-8.12761 11.21015,-13.45371 3.22355,-5.32558 12.33167,-9.38812 20.45929,-5.46456 8.12761,3.92355 9.52964,-2.66254 9.52964,-2.66254 2.80203,0.41949 3.64305,-3.22356 3.64305,-3.22356 3.64304,-4.06253 -2.80203,-5.04507 -2.94305,-15.133699 -0.14102,-10.088626 -8.5471,-11.912184 -8.12761,-14.853194 0.41949,-2.943047 8.96863,-12.331675 6.8666,-11.490659 -1.83425,0.733089 -9.53983,4.563478 -11.46979,5.525148 -0.0641,-0.253526 -0.19091,-0.61498 -0.44189,-1.17956 -1.12203,-2.52152 -13.45371,5.464566 -13.45371,5.464566 0,0 -19.547,11.560913 -23.33157,12.402438 -3.78508,0.841016 -3.36253,-1.682541 -7.98659,-1.261014 -4.62406,0.419489 -6.93787,0.841015 -27.745893,-7.988633 -20.810051,-8.827611 -58.710745,5.368858 -58.710745,5.368858 0,0 -30.2643516,-48.243865 -5.042531,-69.052388 25.22182,-20.80852355 -8.511976,-38.147602 -16.710353,7.250961 -8.1978684,45.399073 11.872985,68.96788 9.490446,78.775486 z"
         id="path7"
         inkscape:connector-curvature="0"
         style="fill:#ffffff;fill-opacity:1;stroke:#000000;stroke-opacity:1" /></g></g><g
     id="g9"
     transform="translate(-8.6299431,3.0002037)" /><g
     id="g11"
     transform="translate(-8.6299431,3.0002037)" /><g
     id="g13"
     transform="translate(-8.6299431,3.0002037)" /><g
     id="g15"
     transform="translate(-8.6299431,3.0002037)" /><g
     id="g17"
     transform="translate(-8.6299431,3.0002037)" /><g
     id="g19"
     transform="translate(-8.6299431,3.0002037)" /><g
     id="g21"
     transform="translate(-8.6299431,3.0002037)" /><g
     id="g23"
     transform="translate(-8.6299431,3.0002037)" /><g
     id="g25"
     transform="translate(-8.6299431,3.0002037)" /><g
     id="g27"
     transform="translate(-8.6299431,3.0002037)" /><g
     id="g29"
     transform="translate(-8.6299431,3.0002037)" /><g
     id="g31"
     transform="translate(-8.6299431,3.0002037)" /><g
     id="g33"
     transform="translate(-8.6299431,3.0002037)" /><g
     id="g35"
     transform="translate(-8.6299431,3.0002037)" /><g
     id="g37"
     transform="translate(-8.6299431,3.0002037)" /></svg>